<?xml version="1.0" encoding="UTF-8" standalone="no"?>
<!-- Created with Inkscape (http://www.inkscape.org/) -->

<svg
   width="13.491983mm"
   height="13.389213mm"
   viewBox="0 0 13.491983 13.389212"
   version="1.1"
   id="svg1"
   xmlns="http://www.w3.org/2000/svg"
   xmlns:svg="http://www.w3.org/2000/svg">
  <defs
     id="defs1" />
  <g
     id="layer1"
     transform="translate(-73.679378,-75.621758)">
    <circle
       style="fill:#000000;fill-opacity:1;stroke:#000000;stroke-width:1.675;stroke-dasharray:none;stroke-opacity:1;paint-order:stroke fill markers"
       id="path2-5-6-4"
       cx="80.476753"
       cy="82.31636"
       r="5.8571062" />
    <path
       d="m 82.424926,81.523771 v 1.585177 q 0,0.15319 -0.106566,0.259756 -0.106567,0.103237 -0.259756,0.103237 -0.15319,0 -0.259756,-0.103237 -0.106567,-0.106566 -0.106567,-0.259756 v -1.342072 h -0.239774 v 3.473404 q 0,0.176501 -0.126548,0.299718 -0.126548,0.126548 -0.303049,0.126548 -0.176501,0 -0.299718,-0.126548 -0.123218,-0.123217 -0.123218,-0.299718 v -1.768339 h -0.246435 v 1.768339 q 0,0.176501 -0.123218,0.299718 -0.123217,0.126548 -0.299718,0.126548 -0.176501,0 -0.303049,-0.126548 -0.126548,-0.123217 -0.126548,-0.299718 v -3.473404 h -0.246435 v 1.342072 q 0,0.15319 -0.103236,0.259756 -0.103236,0.103237 -0.256426,0.103237 -0.153189,0 -0.259756,-0.103237 -0.106566,-0.106566 -0.106566,-0.259756 v -1.585177 q 0,-0.303049 0.213133,-0.516182 0.213133,-0.213133 0.512851,-0.213133 h 2.43771 q 0.306379,0 0.519512,0.213133 0.213133,0.213133 0.213133,0.516182 z m -1.345402,-2.307832 q 0.246435,0.246435 0.246435,0.602767 0,0.356332 -0.246435,0.606097 -0.246436,0.246435 -0.602767,0.246435 -0.356332,0 -0.606098,-0.246435 -0.249765,-0.249765 -0.249765,-0.606097 0,-0.356332 0.249765,-0.602767 0.249766,-0.249766 0.606098,-0.249766 0.356331,0 0.602767,0.249766 z"
       id="text6-7"
       style="font-size:6.82026px;font-family:ModulaBlack;-inkscape-font-specification:'ModulaBlack, Normal';fill:#ffffff;stroke-width:0.359809"
       aria-label="" />
  </g>
</svg>
