<?xml version="1.0" encoding="UTF-8" standalone="no"?>
<!-- Created with Inkscape (http://www.inkscape.org/) -->

<svg
   width="13.389385mm"
   height="13.389378mm"
   viewBox="0 0 13.389385 13.389377"
   version="1.1"
   id="svg1"
   xmlns="http://www.w3.org/2000/svg"
   xmlns:svg="http://www.w3.org/2000/svg">
  <defs
     id="defs1" />
  <g
     id="layer1"
     transform="translate(-73.679378,-92.191548)">
    <path
       id="path2-5-6"
       style="color:#000000;fill:#ffffff;-inkscape-stroke:none;paint-order:stroke fill markers"
       d="m 80.375067,92.191535 c -3.687402,0 -6.695199,3.007797 -6.695199,6.695199 0,3.687396 3.007797,6.693136 6.695199,6.693136 3.687401,0 6.693131,-3.00574 6.693131,-6.693136 0,-3.687402 -3.00573,-6.695199 -6.693131,-6.695199 z m 0,1.675867 c 2.782166,0 5.019332,2.237166 5.019332,5.019332 0,2.782166 -2.237166,5.019336 -5.019332,5.019336 -2.782166,0 -5.021399,-2.23717 -5.021399,-5.019336 0,-2.782166 2.239233,-5.019331 5.021399,-5.019332 z m -0.001,1.668632 c -0.237554,0 -0.439654,0.08309 -0.606164,0.249597 -0.16651,0.16429 -0.249598,0.36551 -0.249598,0.603064 0,0.237555 0.08309,0.439654 0.249598,0.606165 0.16651,0.16429 0.36861,0.246496 0.606164,0.246496 0.237555,0 0.438774,-0.08221 0.603064,-0.246496 0.16429,-0.166511 0.24598,-0.36861 0.24598,-0.606165 0,-0.237554 -0.08169,-0.438774 -0.24598,-0.603064 -0.16429,-0.16651 -0.365509,-0.249597 -0.603064,-0.249597 z m -1.222147,1.828312 c -0.199812,0 -0.370542,0.07082 -0.512631,0.212907 -0.142088,0.142089 -0.213423,0.314216 -0.213423,0.516248 v 1.585433 c 0,0.102126 0.03541,0.188371 0.106453,0.259415 0.07104,0.06882 0.157807,0.103351 0.259933,0.103351 0.102126,0 0.18749,-0.0345 0.256315,-0.103351 0.06882,-0.07104 0.103353,-0.157289 0.103353,-0.259415 v -1.342037 h 0.246496 v 3.473173 c 0,0.11767 0.04224,0.21758 0.126607,0.29972 0.08437,0.0844 0.185157,0.12661 0.302824,0.12661 0.117668,0 0.217579,-0.0423 0.299724,-0.12661 0.08214,-0.0821 0.123506,-0.18205 0.123506,-0.29972 v -1.76837 h 0.246497 v 1.76837 c 0,0.11767 0.04085,0.21758 0.12299,0.29972 0.08214,0.0844 0.182056,0.12661 0.299723,0.12661 0.117667,0 0.218459,-0.0423 0.302824,-0.12661 0.08436,-0.0821 0.126607,-0.18205 0.126607,-0.29972 v -3.473173 h 0.239779 v 1.342037 c 0,0.102126 0.03541,0.188371 0.106453,0.259415 0.07104,0.06882 0.157806,0.103351 0.259933,0.103351 0.102126,0 0.188888,-0.0345 0.259932,-0.103351 0.07104,-0.07104 0.106454,-0.157289 0.106454,-0.259415 v -1.585433 c 0,-0.202032 -0.07082,-0.374159 -0.212907,-0.516248 -0.142089,-0.142089 -0.315613,-0.212907 -0.519865,-0.212907 z" />
  </g>
</svg>
