<?xml version="1.0" encoding="UTF-8" standalone="no"?>
<!-- Created with Inkscape (http://www.inkscape.org/) -->

<svg
   width="13.389386mm"
   height="13.389378mm"
   viewBox="0 0 13.389386 13.389377"
   version="1.1"
   id="svg1"
   xmlns="http://www.w3.org/2000/svg"
   xmlns:svg="http://www.w3.org/2000/svg">
  <defs
     id="defs1" />
  <g
     id="layer1"
     transform="translate(-93.763458,-91.895569)">
    <path
       id="path2-5-3"
       style="color:#000000;fill:#ffffff;-inkscape-stroke:none;paint-order:stroke fill markers"
       d="m 100.45911,91.896463 c -3.687441,0 -6.695196,3.005683 -6.695196,6.693132 0,3.687455 3.007755,6.695715 6.695196,6.695715 3.68746,0 6.69313,-3.00826 6.69313,-6.695715 0,-3.687449 -3.00567,-6.693132 -6.69313,-6.693132 z m 0,1.6738 c 2.78213,0 5.01933,2.237211 5.01933,5.019332 0,2.782125 -2.2372,5.019835 -5.01933,5.019845 -2.782114,0 -5.019846,-2.23772 -5.019846,-5.019845 0,-2.782121 2.237732,-5.019331 5.019846,-5.019332 z m -2.054136,1.669665 c -0.237554,0 -0.439655,0.0836 -0.606165,0.250114 -0.166509,0.16429 -0.249597,0.364993 -0.249597,0.602547 0,0.237555 0.08309,0.439655 0.249597,0.606165 0.16651,0.16429 0.368611,0.246496 0.606165,0.246496 0.237554,0 0.438774,-0.08221 0.603064,-0.246496 0.16429,-0.16651 0.246497,-0.36861 0.246497,-0.606165 0,-0.237554 -0.08221,-0.438257 -0.246497,-0.602547 -0.16429,-0.16651 -0.36551,-0.250114 -0.603064,-0.250114 z m 4.106206,0 c -0.23755,0 -0.43965,0.0836 -0.60616,0.250114 -0.16651,0.16429 -0.2496,0.364993 -0.2496,0.602547 0,0.237555 0.0831,0.439655 0.2496,0.606165 0.16651,0.16429 0.36861,0.246496 0.60616,0.246496 0.23756,0 0.43877,-0.08221 0.60307,-0.246496 0.16428,-0.16651 0.24598,-0.36861 0.24598,-0.606165 0,-0.237554 -0.0817,-0.438257 -0.24598,-0.602547 -0.1643,-0.16651 -0.36551,-0.250114 -0.60307,-0.250114 z m -5.328354,1.828312 c -0.199811,0 -0.370541,0.07133 -0.51263,0.213424 -0.142088,0.142089 -0.213424,0.314215 -0.213424,0.516248 v 1.584916 c 0,0.102126 0.03541,0.188888 0.106454,0.259932 0.07104,0.06882 0.157806,0.102836 0.259932,0.102836 0.102126,0 0.187491,-0.03401 0.256315,-0.102836 0.06882,-0.07104 0.103353,-0.157806 0.103353,-0.259932 v -1.342037 h 0.246497 v 3.473169 c 0,0.11768 0.04224,0.21759 0.126607,0.29973 0.08436,0.0844 0.185157,0.1266 0.302824,0.1266 0.117667,0 0.217579,-0.0422 0.299723,-0.1266 0.08215,-0.0821 0.123507,-0.18205 0.123507,-0.29973 v -1.768364 h 0.246497 v 1.768364 c 0,0.11768 0.04084,0.21759 0.12299,0.29973 0.08214,0.0844 0.182056,0.1266 0.299723,0.1266 0.117667,0 0.218975,-0.0422 0.303341,-0.1266 0.08436,-0.0821 0.12609,-0.18205 0.12609,-0.29973 v -3.473169 h 0.239779 v 1.342037 c 0,0.102126 0.03593,0.188888 0.10697,0.259932 0.07104,0.06882 0.157289,0.102836 0.259416,0.102836 0.10213,0 0.18889,-0.03401 0.25993,-0.102836 0.071,-0.07104 0.10646,-0.157806 0.10646,-0.259932 v -1.584916 c 0,-0.202033 -0.0708,-0.374159 -0.21291,-0.516248 -0.142093,-0.142089 -0.315614,-0.213424 -0.519866,-0.213424 z m 4.106214,0 c -0.19982,0 -0.37054,0.07133 -0.51263,0.213424 -0.14209,0.142089 -0.21343,0.314215 -0.21343,0.516248 v 1.584916 c 0,0.102126 0.0354,0.188888 0.10646,0.259932 0.071,0.06882 0.1578,0.102836 0.25993,0.102836 0.10212,0 0.18749,-0.03401 0.25631,-0.102836 0.0688,-0.07104 0.10336,-0.157806 0.10336,-0.259932 v -1.342037 h 0.24649 v 3.473169 c 0,0.11768 0.0422,0.21759 0.12661,0.29973 0.0844,0.0844 0.18516,0.1266 0.30282,0.1266 0.11767,0 0.21758,-0.0422 0.29973,-0.1266 0.0821,-0.0821 0.1235,-0.18205 0.1235,-0.29973 v -1.768364 h 0.2465 v 1.768364 c 0,0.11768 0.0408,0.21759 0.12299,0.29973 0.0821,0.0844 0.18206,0.1266 0.29972,0.1266 0.11768,0 0.21847,-0.0422 0.30283,-0.1266 0.0844,-0.0821 0.1266,-0.18205 0.1266,-0.29973 v -3.473169 h 0.23978 v 1.342037 c 0,0.102126 0.0354,0.188888 0.10646,0.259932 0.071,0.06882 0.1578,0.102836 0.25993,0.102836 0.10213,0 0.18889,-0.03401 0.25993,-0.102836 0.071,-0.07104 0.10645,-0.157806 0.10645,-0.259932 v -1.584916 c 0,-0.202033 -0.0708,-0.374159 -0.2129,-0.516248 -0.14209,-0.142089 -0.31561,-0.213424 -0.51987,-0.213424 z" />
  </g>
</svg>
