<?xml version="1.0" encoding="UTF-8" standalone="no"?>
<!-- Created with Inkscape (http://www.inkscape.org/) -->

<svg
   width="13.389385mm"
   height="13.389378mm"
   viewBox="0 0 13.389385 13.389377"
   version="1.1"
   id="svg1"
   xmlns="http://www.w3.org/2000/svg"
   xmlns:svg="http://www.w3.org/2000/svg">
  <defs
     id="defs1" />
  <g
     id="layer1"
     transform="translate(-73.679378,-92.191548)">
    <circle
       style="fill:none;fill-opacity:1;stroke:#000000;stroke-width:1.675;stroke-dasharray:none;stroke-opacity:1;paint-order:stroke fill markers"
       id="path2-5-6"
       cx="80.374069"
       cy="98.886238"
       r="5.8571062" />
    <path
       d="m 82.322242,98.093648 v 1.585178 q 0,0.153189 -0.106566,0.259756 -0.106567,0.103238 -0.259756,0.103238 -0.15319,0 -0.259756,-0.103238 -0.106567,-0.106567 -0.106567,-0.259756 v -1.342073 h -0.239774 v 3.473407 q 0,0.1765 -0.126548,0.29972 -0.126548,0.12654 -0.303049,0.12654 -0.176501,0 -0.299718,-0.12654 -0.123218,-0.12322 -0.123218,-0.29972 v -1.76834 h -0.246435 v 1.76834 q 0,0.1765 -0.123218,0.29972 -0.123217,0.12654 -0.299718,0.12654 -0.176501,0 -0.303049,-0.12654 -0.126548,-0.12322 -0.126548,-0.29972 v -3.473407 h -0.246435 v 1.342073 q 0,0.153189 -0.103236,0.259756 -0.103237,0.103238 -0.256426,0.103238 -0.153189,0 -0.259756,-0.103238 -0.106566,-0.106567 -0.106566,-0.259756 v -1.585178 q 0,-0.303048 0.213133,-0.516181 0.213133,-0.213134 0.512851,-0.213134 h 2.43771 q 0.306379,0 0.519512,0.213134 0.213133,0.213133 0.213133,0.516181 z M 80.97684,95.785816 q 0.246435,0.246435 0.246435,0.602767 0,0.356332 -0.246435,0.606098 -0.246436,0.246435 -0.602768,0.246435 -0.356331,0 -0.606097,-0.246435 -0.249765,-0.249766 -0.249765,-0.606098 0,-0.356332 0.249765,-0.602767 0.249766,-0.249765 0.606097,-0.249765 0.356332,0 0.602768,0.249765 z"
       id="text6"
       style="font-size:6.82026px;font-family:ModulaBlack;-inkscape-font-specification:'ModulaBlack, Normal';stroke-width:0.359809"
       aria-label="" />
  </g>
</svg>
