<?xml version="1.0" encoding="UTF-8" standalone="no"?>
<!-- Created with Inkscape (http://www.inkscape.org/) -->

<svg
   width="13.389386mm"
   height="13.389378mm"
   viewBox="0 0 13.389386 13.389377"
   version="1.1"
   id="svg1"
   xmlns="http://www.w3.org/2000/svg"
   xmlns:svg="http://www.w3.org/2000/svg">
  <defs
     id="defs1" />
  <g
     id="layer1"
     transform="translate(-93.763458,-91.895569)">
    <circle
       style="fill:none;fill-opacity:1;stroke:#000000;stroke-width:1.67517;stroke-dasharray:none;stroke-opacity:1;paint-order:stroke fill markers"
       id="path2-5-3"
       cx="100.45815"
       cy="98.590263"
       r="5.8571062" />
    <path
       d="m 100.35325,97.797666 v 1.585178 q 0,0.153189 -0.10657,0.259756 -0.10656,0.103236 -0.259754,0.103236 -0.15319,0 -0.259756,-0.103236 -0.106567,-0.106567 -0.106567,-0.259756 v -1.342073 h -0.239775 v 3.473399 q 0,0.17651 -0.126547,0.29972 -0.126548,0.12655 -0.303049,0.12655 -0.176501,0 -0.299718,-0.12655 -0.123218,-0.12321 -0.123218,-0.29972 v -1.768334 h -0.246435 v 1.768334 q 0,0.17651 -0.123218,0.29972 -0.123217,0.12655 -0.299718,0.12655 -0.176501,0 -0.303049,-0.12655 -0.126548,-0.12321 -0.126548,-0.29972 v -3.473399 h -0.246435 v 1.342073 q 0,0.153189 -0.103236,0.259756 -0.103237,0.103236 -0.256426,0.103236 -0.15319,0 -0.259756,-0.103236 -0.106567,-0.106567 -0.106567,-0.259756 v -1.585178 q 0,-0.303049 0.213133,-0.516182 0.213134,-0.213133 0.512852,-0.213133 h 2.43771 q 0.306379,0 0.519517,0.213133 0.21313,0.213133 0.21313,0.516182 z m -1.345405,-2.307832 q 0.246436,0.246435 0.246436,0.602767 0,0.356332 -0.246436,0.606097 -0.246435,0.246436 -0.602767,0.246436 -0.356332,0 -0.606097,-0.246436 -0.249765,-0.249765 -0.249765,-0.606097 0,-0.356332 0.249765,-0.602767 0.249765,-0.249766 0.606097,-0.249766 0.356332,0 0.602767,0.249766 z m 5.451545,2.307832 v 1.585178 q 0,0.153189 -0.10657,0.259756 -0.10656,0.103236 -0.25975,0.103236 -0.15319,0 -0.25976,-0.103236 -0.10656,-0.106567 -0.10656,-0.259756 v -1.342073 h -0.23978 v 3.473399 q 0,0.17651 -0.12655,0.29972 -0.12654,0.12655 -0.30305,0.12655 -0.1765,0 -0.29971,-0.12655 -0.12322,-0.12321 -0.12322,-0.29972 V 99.745836 H 102.388 v 1.768334 q 0,0.17651 -0.12321,0.29972 -0.12322,0.12655 -0.29972,0.12655 -0.1765,0 -0.30305,-0.12655 -0.12655,-0.12321 -0.12655,-0.29972 v -3.473399 h -0.24643 v 1.342073 q 0,0.153189 -0.10324,0.259756 -0.10324,0.103236 -0.25643,0.103236 -0.15319,0 -0.25975,-0.103236 -0.10657,-0.106567 -0.10657,-0.259756 v -1.585178 q 0,-0.303049 0.21313,-0.516182 0.21314,-0.213133 0.51286,-0.213133 h 2.43771 q 0.30638,0 0.51951,0.213133 0.21313,0.213133 0.21313,0.516182 z m -1.3454,-2.307832 q 0.24643,0.246435 0.24643,0.602767 0,0.356332 -0.24643,0.606097 -0.24644,0.246436 -0.60277,0.246436 -0.35633,0 -0.6061,-0.246436 -0.24976,-0.249765 -0.24976,-0.606097 0,-0.356332 0.24976,-0.602767 0.24977,-0.249766 0.6061,-0.249766 0.35633,0 0.60277,0.249766 z"
       id="text6-0"
       style="font-size:6.82026px;font-family:ModulaBlack;-inkscape-font-specification:'ModulaBlack, Normal';stroke-width:0.359809"
       aria-label="" />
  </g>
</svg>
