<?xml version="1.0" encoding="UTF-8" standalone="no"?>
<!-- Created with Inkscape (http://www.inkscape.org/) -->

<svg
   width="13.491983mm"
   height="13.389213mm"
   viewBox="0 0 13.491983 13.389212"
   version="1.1"
   id="svg1"
   xmlns="http://www.w3.org/2000/svg"
   xmlns:svg="http://www.w3.org/2000/svg">
  <defs
     id="defs1" />
  <g
     id="layer1"
     transform="translate(-73.679378,-75.621758)">
    <path
       id="path2-5-6-4"
       style="fill:#ffffff;fill-opacity:1;stroke:none;stroke-width:1.91451;stroke-dasharray:none;stroke-opacity:1;paint-order:stroke fill markers"
       d="m 80.476869,75.622004 a 6.6946034,6.6946034 0 0 0 -6.694681,6.694165 6.6946034,6.6946034 0 0 0 6.694681,6.694682 6.6946034,6.6946034 0 0 0 6.694682,-6.694682 6.6946034,6.6946034 0 0 0 -6.694682,-6.694165 z m 0,3.343982 c 0.237554,0 0.438257,0.0836 0.602548,0.250114 0.164289,0.16429 0.246496,0.364993 0.246496,0.602547 0,0.237555 -0.08221,0.439655 -0.246496,0.606165 -0.164291,0.16429 -0.364994,0.246496 -0.602548,0.246496 -0.237554,0 -0.439654,-0.08221 -0.606164,-0.246496 -0.16651,-0.16651 -0.249597,-0.36861 -0.249597,-0.606165 0,-0.237554 0.08309,-0.438257 0.249597,-0.602547 0.16651,-0.16651 0.36861,-0.250114 0.606164,-0.250114 z m -1.222147,1.828312 h 2.437577 c 0.204252,0 0.37726,0.07134 0.519348,0.213424 0.142089,0.142088 0.213424,0.314215 0.213424,0.516248 v 1.584916 c 0,0.102126 -0.03541,0.188888 -0.106454,0.259932 -0.07104,0.06882 -0.157806,0.103353 -0.259932,0.103353 -0.102127,0 -0.188889,-0.03453 -0.259933,-0.103353 -0.07104,-0.07104 -0.106453,-0.157806 -0.106453,-0.259932 V 81.766849 H 81.45252 v 3.473173 c 0,0.117667 -0.04224,0.217578 -0.126607,0.299723 -0.08437,0.08437 -0.185157,0.126607 -0.302824,0.126607 -0.117667,0 -0.217579,-0.04224 -0.299723,-0.126607 -0.08214,-0.08214 -0.123507,-0.182056 -0.123507,-0.299723 v -1.767851 h -0.246496 v 1.767851 c 0,0.117667 -0.04085,0.217578 -0.12299,0.299723 -0.08214,0.08437 -0.182056,0.126607 -0.299724,0.126607 -0.117667,0 -0.218975,-0.04224 -0.30334,-0.126607 -0.08436,-0.08214 -0.126091,-0.182056 -0.126091,-0.299723 v -3.473173 h -0.246496 v 1.342037 c 0,0.102126 -0.03453,0.188888 -0.103353,0.259932 -0.06882,0.06882 -0.154189,0.103353 -0.256315,0.103353 -0.102126,0 -0.188888,-0.03453 -0.259933,-0.103353 -0.07104,-0.07104 -0.106453,-0.157806 -0.106453,-0.259932 V 81.52397 c 0,-0.202033 0.07082,-0.37416 0.212907,-0.516248 0.142088,-0.142089 0.313335,-0.213424 0.513147,-0.213424 z" />
  </g>
</svg>
