<?xml version="1.0" encoding="UTF-8" standalone="no"?>
<!-- Created with Inkscape (http://www.inkscape.org/) -->

<svg
   width="13.389381mm"
   height="13.389381mm"
   viewBox="0 0 13.389381 13.389381"
   version="1.1"
   id="svg1"
   xmlns="http://www.w3.org/2000/svg"
   xmlns:svg="http://www.w3.org/2000/svg">
  <defs
     id="defs1" />
  <g
     id="layer1"
     transform="translate(-93.763458,-75.540878)">
    <path
       id="path2-5-3-7"
       style="fill:#ffffff;fill-opacity:1;stroke:none;stroke-width:1.91472;stroke-dasharray:none;stroke-opacity:1;paint-order:stroke fill markers"
       d="m 100.45808,75.540872 a 6.6946898,6.6946898 0 0 0 -6.694683,6.694682 6.6946898,6.6946898 0 0 0 6.694683,6.694682 6.6946898,6.6946898 0 0 0 6.69468,-6.694682 6.6946898,6.6946898 0 0 0 -6.69468,-6.694682 z m -2.053106,3.344499 c 0.237554,0 0.438774,0.08309 0.603064,0.249597 0.16429,0.16429 0.246497,0.36551 0.246497,0.603064 0,0.237554 -0.08221,0.439655 -0.246497,0.606165 -0.16429,0.164289 -0.36551,0.246496 -0.603064,0.246496 -0.237554,0 -0.439655,-0.08221 -0.606165,-0.246496 -0.166509,-0.16651 -0.249597,-0.368611 -0.249597,-0.606165 0,-0.237554 0.08309,-0.438774 0.249597,-0.603064 0.16651,-0.16651 0.368611,-0.249597 0.606165,-0.249597 z m 4.106206,0 c 0.23756,0 0.43877,0.08309 0.60307,0.249597 0.16428,0.16429 0.24598,0.36551 0.24598,0.603064 0,0.237554 -0.0817,0.439655 -0.24598,0.606165 -0.1643,0.164289 -0.36551,0.246496 -0.60307,0.246496 -0.23755,0 -0.43965,-0.08221 -0.60616,-0.246496 -0.16651,-0.16651 -0.2496,-0.368611 -0.2496,-0.606165 0,-0.237554 0.0831,-0.438774 0.2496,-0.603064 0.16651,-0.16651 0.36861,-0.249597 0.60616,-0.249597 z m -5.328354,1.828312 h 2.437578 c 0.204252,0 0.377773,0.07082 0.519866,0.212907 0.14209,0.142088 0.21291,0.314215 0.21291,0.516248 v 1.585432 c 0,0.102127 -0.0354,0.188372 -0.10646,0.259416 -0.071,0.06883 -0.1578,0.103353 -0.25993,0.103353 -0.102127,0 -0.188372,-0.03453 -0.259416,-0.103353 -0.07104,-0.07104 -0.10697,-0.157289 -0.10697,-0.259416 v -1.342036 h -0.239779 v 3.473173 c 0,0.117667 -0.04173,0.217578 -0.12609,0.299723 -0.08437,0.08436 -0.185674,0.126607 -0.303341,0.126607 -0.117667,0 -0.217579,-0.04224 -0.299723,-0.126607 -0.08215,-0.08214 -0.12299,-0.182056 -0.12299,-0.299723 v -1.768368 h -0.246497 v 1.768368 c 0,0.117667 -0.04136,0.217578 -0.123507,0.299723 -0.08214,0.08436 -0.182056,0.126607 -0.299723,0.126607 -0.117667,0 -0.218459,-0.04224 -0.302824,-0.126607 -0.08437,-0.08214 -0.126607,-0.182056 -0.126607,-0.299723 v -3.473173 h -0.246497 v 1.342036 c 0,0.102127 -0.03453,0.188372 -0.103353,0.259416 -0.06882,0.06883 -0.154189,0.103353 -0.256315,0.103353 -0.102126,0 -0.188888,-0.03453 -0.259932,-0.103353 -0.07104,-0.07104 -0.106454,-0.157289 -0.106454,-0.259416 v -1.585432 c 0,-0.202033 0.07134,-0.37416 0.213424,-0.516248 0.142089,-0.142089 0.312819,-0.212907 0.51263,-0.212907 z m 4.106214,0 h 2.43757 c 0.20426,0 0.37778,0.07082 0.51987,0.212907 0.14208,0.142088 0.2129,0.314215 0.2129,0.516248 v 1.585432 c 0,0.102127 -0.0354,0.188372 -0.10645,0.259416 -0.071,0.06883 -0.1578,0.103353 -0.25993,0.103353 -0.10213,0 -0.18889,-0.03453 -0.25993,-0.103353 -0.071,-0.07104 -0.10646,-0.157289 -0.10646,-0.259416 v -1.342036 h -0.23978 v 3.473173 c 0,0.117667 -0.0422,0.217578 -0.1266,0.299723 -0.0844,0.08436 -0.18515,0.126607 -0.30283,0.126607 -0.11766,0 -0.21758,-0.04224 -0.29972,-0.126607 -0.0821,-0.08214 -0.12299,-0.182056 -0.12299,-0.299723 v -1.768368 h -0.2465 v 1.768368 c 0,0.117667 -0.0414,0.217578 -0.1235,0.299723 -0.0821,0.08436 -0.18206,0.126607 -0.29973,0.126607 -0.11766,0 -0.21845,-0.04224 -0.30282,-0.126607 -0.0844,-0.08214 -0.12661,-0.182056 -0.12661,-0.299723 v -3.473173 h -0.24649 v 1.342036 c 0,0.102127 -0.0345,0.188372 -0.10336,0.259416 -0.0688,0.06883 -0.15419,0.103353 -0.25631,0.103353 -0.10213,0 -0.18889,-0.03453 -0.25993,-0.103353 -0.071,-0.07104 -0.10646,-0.157289 -0.10646,-0.259416 v -1.585432 c 0,-0.202033 0.0713,-0.37416 0.21343,-0.516248 0.14209,-0.142089 0.31281,-0.212907 0.51263,-0.212907 z" />
  </g>
</svg>
