<?xml version="1.0" encoding="UTF-8" standalone="no"?>
<!-- Created with Inkscape (http://www.inkscape.org/) -->

<svg
   width="13.38938mm"
   height="13.389381mm"
   viewBox="0 0 13.38938 13.389381"
   version="1.1"
   id="svg1"
   inkscape:version="1.3.2 (091e20ef0f, 2023-11-25, custom)"
   sodipodi:docname="inputs.svg"
   xmlns:inkscape="http://www.inkscape.org/namespaces/inkscape"
   xmlns:sodipodi="http://sodipodi.sourceforge.net/DTD/sodipodi-0.dtd"
   xmlns="http://www.w3.org/2000/svg"
   xmlns:svg="http://www.w3.org/2000/svg">
  <sodipodi:namedview
     id="namedview1"
     pagecolor="#ffffff"
     bordercolor="#999999"
     borderopacity="1"
     inkscape:showpageshadow="2"
     inkscape:pageopacity="0"
     inkscape:pagecheckerboard="0"
     inkscape:deskcolor="#d1d1d1"
     inkscape:document-units="mm"
     inkscape:zoom="5.9879796"
     inkscape:cx="134.5195"
     inkscape:cy="-10.604579"
     inkscape:window-width="2558"
     inkscape:window-height="1413"
     inkscape:window-x="0"
     inkscape:window-y="25"
     inkscape:window-maximized="1"
     inkscape:current-layer="layer1"
     showguides="false">
    <inkscape:page
       x="0"
       y="0"
       width="13.38938"
       height="13.38938"
       id="page2"
       margin="0"
       bleed="0"
       inkscape:label="Blank Button" />
    <inkscape:page
       x="-39.639771"
       y="0"
       width="32.94508"
       height="32.945076"
       id="page3"
       margin="0"
       bleed="0"
       inkscape:label="Stick Base" />
    <inkscape:page
       x="20.084072"
       y="-0.11936026"
       width="13.389385"
       height="13.389378"
       id="page4"
       inkscape:label="P1 Button"
       margin="0"
       bleed="0"
       inkscape:export-filename="inputs/P2 Button Pressed.svg"
       inkscape:export-xdpi="96"
       inkscape:export-ydpi="96" />
    <inkscape:page
       x="2.4069157"
       y="18.903341"
       width="13.674999"
       height="17.674999"
       id="page5"
       inkscape:label="Coin Mech"
       margin="0"
       bleed="0"
       inkscape:export-filename="inputs/Coin Mech.svg"
       inkscape:export-xdpi="96"
       inkscape:export-ydpi="96" />
    <inkscape:page
       x="40.168152"
       y="-0.41533917"
       width="13.389386"
       height="13.389378"
       id="page6"
       inkscape:label="P2 Button"
       margin="0"
       bleed="0" />
    <inkscape:page
       x="-1.7186355e-06"
       y="-16.257746"
       width="13.389381"
       height="13.389382"
       id="page7"
       margin="0"
       bleed="0"
       inkscape:label="Blank Button Pressed" />
    <inkscape:page
       x="20.084072"
       y="-16.68915"
       width="13.491983"
       height="13.389213"
       id="page8"
       inkscape:label="P1 Button Pressed"
       margin="0"
       bleed="0" />
    <inkscape:page
       x="40.168152"
       y="-16.770029"
       width="13.389381"
       height="13.389381"
       id="page9"
       inkscape:label="P2 Button Pressed"
       margin="0"
       bleed="0" />
    <inkscape:page
       x="-33.054619"
       y="-26.366945"
       width="17.544956"
       height="17.544954"
       id="page10"
       inkscape:label="Stick Handle"
       margin="0"
       bleed="0" />
    <inkscape:page
       x="19.641111"
       y="18.903341"
       width="13.674785"
       height="17.675049"
       id="page11"
       inkscape:label="Coin Mech Inserted"
       margin="0"
       bleed="0" />
    <inkscape:page
       x="-39.639767"
       y="40.384171"
       width="32.945076"
       height="32.945076"
       id="page12"
       margin="0"
       bleed="0"
       inkscape:label="Stick Center" />
    <inkscape:page
       x="63.557537"
       y="0"
       width="32.945076"
       height="32.945076"
       id="page13"
       margin="0"
       bleed="0"
       inkscape:label="Stick Right" />
    <inkscape:page
       x="106.50261"
       y="0"
       width="32.945076"
       height="32.945076"
       id="page14"
       margin="0"
       bleed="0"
       inkscape:label="Stick Up Right" />
    <inkscape:page
       x="149.44769"
       y="0"
       width="32.945076"
       height="32.945076"
       id="page15"
       margin="0"
       bleed="0"
       inkscape:label="Stick Up" />
    <inkscape:page
       x="192.39278"
       y="0"
       width="32.945076"
       height="32.945076"
       id="page16"
       margin="0"
       bleed="0"
       inkscape:label="Stick Up Left" />
    <inkscape:page
       x="63.557537"
       y="43.805988"
       width="32.945076"
       height="32.945076"
       id="page17"
       margin="0"
       bleed="0"
       inkscape:label="Stick Left" />
    <inkscape:page
       x="192.72781"
       y="43.805988"
       width="32.945076"
       height="32.945076"
       id="page18"
       margin="0"
       bleed="0"
       inkscape:label="Stick Down Right"
       inkscape:export-filename="inputs/Stick Center.svg"
       inkscape:export-xdpi="96"
       inkscape:export-ydpi="96" />
    <inkscape:page
       x="149.72261"
       y="43.805988"
       width="32.945076"
       height="32.945076"
       id="page19"
       margin="0"
       bleed="0"
       inkscape:label="Stick Down" />
    <inkscape:page
       x="106.83966"
       y="43.805988"
       width="32.945076"
       height="32.945076"
       id="page20"
       margin="0"
       bleed="0"
       inkscape:label="Stick Down Left" />
  </sodipodi:namedview>
  <defs
     id="defs1" />
  <g
     inkscape:label="Layer 1"
     inkscape:groupmode="layer"
     id="layer1"
     transform="translate(-53.595306,-92.310908)">
    <path
       id="rect11-1"
       style="fill:#000000;fill-opacity:1;stroke:#000000;stroke-width:1.675;stroke-linejoin:round;stroke-dasharray:none;stroke-opacity:1;paint-order:normal"
       d="m 74.073918,112.05175 v 16.00005 h 11.999785 v -16.00005 z m 2.116667,2.64583 h 3.999756 v 9.99991 h -3.999756 z" />
    <path
       id="rect11-1-0"
       style="fill:#ffffff;fill-opacity:1;stroke:#000000;stroke-width:1.675;stroke-linejoin:round;stroke-dasharray:none;stroke-opacity:1;paint-order:normal"
       d="m 56.839829,112.05173 v 16.00005 h 11.999785 v -16.00005 z m 2.116667,2.64583 h 3.999756 v 9.99991 h -3.999756 z" />
    <circle
       style="opacity:1;fill:none;stroke:#ffffff;stroke-width:3.569;paint-order:stroke fill markers;stroke-opacity:1"
       id="path1"
       cx="30.428076"
       cy="108.78345"
       r="14.688039" />
    <circle
       style="opacity:1;fill:#ffffff;fill-opacity:1;stroke:#ffffff;stroke-width:2.97656;paint-order:stroke fill markers;stroke-opacity:1"
       id="path2"
       cx="29.313164"
       cy="74.716438"
       r="7.2841978" />
    <circle
       style="opacity:1;fill:none;fill-opacity:1;stroke:#ffffff;stroke-width:1.67517;stroke-dasharray:none;paint-order:stroke fill markers;stroke-opacity:1"
       id="path2-5"
       cx="60.289997"
       cy="99.0056"
       r="5.8571062" />
    <circle
       style="fill:#ffffff;fill-opacity:1;stroke:#ffffff;stroke-width:1.67517;stroke-dasharray:none;paint-order:stroke fill markers;stroke-opacity:1"
       id="path2-5-4"
       cx="60.289993"
       cy="82.747856"
       r="5.8571062" />
    <path
       id="path2-5-6"
       style="color:#000000;fill:#ffffff;-inkscape-stroke:none;paint-order:stroke fill markers"
       d="M 80.375067 92.191535 C 76.687665 92.191535 73.679868 95.199332 73.679868 98.886734 C 73.679868 102.57413 76.687665 105.57987 80.375067 105.57987 C 84.062468 105.57987 87.068198 102.57413 87.068198 98.886734 C 87.068198 95.199332 84.062468 92.191535 80.375067 92.191535 z M 80.375067 93.867402 C 83.157233 93.867402 85.394399 96.104568 85.394399 98.886734 C 85.394399 101.6689 83.157233 103.90607 80.375067 103.90607 C 77.592901 103.90607 75.353668 101.6689 75.353668 98.886734 C 75.353668 96.104568 77.592901 93.867403 80.375067 93.867402 z M 80.374033 95.536034 C 80.136479 95.536034 79.934379 95.619121 79.767869 95.785631 C 79.601359 95.949921 79.518271 96.151141 79.518271 96.388695 C 79.518271 96.62625 79.601359 96.828349 79.767869 96.99486 C 79.934379 97.15915 80.136479 97.241356 80.374033 97.241356 C 80.611588 97.241356 80.812807 97.15915 80.977097 96.99486 C 81.141387 96.828349 81.223077 96.62625 81.223077 96.388695 C 81.223077 96.151141 81.141387 95.949921 80.977097 95.785631 C 80.812807 95.619121 80.611588 95.536034 80.374033 95.536034 z M 79.151886 97.364346 C 78.952074 97.364346 78.781344 97.435164 78.639255 97.577253 C 78.497167 97.719342 78.425832 97.891469 78.425832 98.093501 L 78.425832 99.678934 C 78.425832 99.78106 78.461241 99.867305 78.532285 99.938349 C 78.60333 100.00717 78.690092 100.0417 78.792218 100.0417 C 78.894344 100.0417 78.979708 100.00717 79.048533 99.938349 C 79.117357 99.867305 79.151886 99.78106 79.151886 99.678934 L 79.151886 98.336897 L 79.398382 98.336897 L 79.398382 101.81007 C 79.398382 101.92774 79.440624 102.02765 79.524989 102.10979 C 79.609355 102.19415 79.710146 102.2364 79.827813 102.2364 C 79.945481 102.2364 80.045392 102.19415 80.127537 102.10979 C 80.209682 102.02765 80.251043 101.92774 80.251043 101.81007 L 80.251043 100.0417 L 80.49754 100.0417 L 80.49754 101.81007 C 80.49754 101.92774 80.538385 102.02765 80.62053 102.10979 C 80.702674 102.19415 80.802586 102.2364 80.920253 102.2364 C 81.03792 102.2364 81.138712 102.19415 81.223077 102.10979 C 81.307442 102.02765 81.349684 101.92774 81.349684 101.81007 L 81.349684 98.336897 L 81.589463 98.336897 L 81.589463 99.678934 C 81.589463 99.78106 81.624872 99.867305 81.695916 99.938349 C 81.76696 100.00717 81.853722 100.0417 81.955849 100.0417 C 82.057975 100.0417 82.144737 100.00717 82.215781 99.938349 C 82.286825 99.867305 82.322235 99.78106 82.322235 99.678934 L 82.322235 98.093501 C 82.322235 97.891469 82.251416 97.719342 82.109328 97.577253 C 81.967239 97.435164 81.793715 97.364346 81.589463 97.364346 L 79.151886 97.364346 z " />
    <path
       id="path2-5-3"
       style="color:#000000;fill:#ffffff;-inkscape-stroke:none;paint-order:stroke fill markers"
       d="M 100.45911 91.896463 C 96.771669 91.896463 93.763914 94.902146 93.763914 98.589595 C 93.763914 102.27705 96.771669 105.28531 100.45911 105.28531 C 104.14657 105.28531 107.15224 102.27705 107.15224 98.589595 C 107.15224 94.902146 104.14657 91.896463 100.45911 91.896463 z M 100.45911 93.570263 C 103.24124 93.570263 105.47844 95.807474 105.47844 98.589595 C 105.47844 101.37172 103.24124 103.60943 100.45911 103.60944 C 97.676996 103.60944 95.439264 101.37172 95.439264 98.589595 C 95.439264 95.807474 97.676996 93.570264 100.45911 93.570263 z M 98.404974 95.239928 C 98.16742 95.239928 97.965319 95.323532 97.798809 95.490042 C 97.6323 95.654332 97.549212 95.855035 97.549212 96.092589 C 97.549212 96.330144 97.6323 96.532244 97.798809 96.698754 C 97.965319 96.863044 98.16742 96.94525 98.404974 96.94525 C 98.642528 96.94525 98.843748 96.863044 99.008038 96.698754 C 99.172328 96.532244 99.254535 96.330144 99.254535 96.092589 C 99.254535 95.855035 99.172328 95.654332 99.008038 95.490042 C 98.843748 95.323532 98.642528 95.239928 98.404974 95.239928 z M 102.51118 95.239928 C 102.27363 95.239928 102.07153 95.323532 101.90502 95.490042 C 101.73851 95.654332 101.65542 95.855035 101.65542 96.092589 C 101.65542 96.330144 101.73851 96.532244 101.90502 96.698754 C 102.07153 96.863044 102.27363 96.94525 102.51118 96.94525 C 102.74874 96.94525 102.94995 96.863044 103.11425 96.698754 C 103.27853 96.532244 103.36023 96.330144 103.36023 96.092589 C 103.36023 95.855035 103.27853 95.654332 103.11425 95.490042 C 102.94995 95.323532 102.74874 95.239928 102.51118 95.239928 z M 97.182826 97.06824 C 96.983015 97.06824 96.812285 97.139575 96.670196 97.281664 C 96.528108 97.423753 96.456772 97.595879 96.456772 97.797912 L 96.456772 99.382828 C 96.456772 99.484954 96.492181 99.571716 96.563226 99.64276 C 96.63427 99.711584 96.721032 99.745596 96.823158 99.745596 C 96.925284 99.745596 97.010649 99.711584 97.079473 99.64276 C 97.148297 99.571716 97.182826 99.484954 97.182826 99.382828 L 97.182826 98.040791 L 97.429323 98.040791 L 97.429323 101.51396 C 97.429323 101.63164 97.471565 101.73155 97.55593 101.81369 C 97.640295 101.89805 97.741087 101.94029 97.858754 101.94029 C 97.976421 101.94029 98.076333 101.89805 98.158477 101.81369 C 98.240623 101.73155 98.281984 101.63164 98.281984 101.51396 L 98.281984 99.745596 L 98.528481 99.745596 L 98.528481 101.51396 C 98.528481 101.63164 98.569325 101.73155 98.651471 101.81369 C 98.733615 101.89805 98.833527 101.94029 98.951194 101.94029 C 99.068861 101.94029 99.170169 101.89805 99.254535 101.81369 C 99.338899 101.73155 99.380625 101.63164 99.380625 101.51396 L 99.380625 98.040791 L 99.620404 98.040791 L 99.620404 99.382828 C 99.620404 99.484954 99.656329 99.571716 99.727374 99.64276 C 99.798418 99.711584 99.884663 99.745596 99.98679 99.745596 C 100.08892 99.745596 100.17568 99.711584 100.24672 99.64276 C 100.31777 99.571716 100.35318 99.484954 100.35318 99.382828 L 100.35318 97.797912 C 100.35318 97.595879 100.28236 97.423753 100.14027 97.281664 C 99.998177 97.139575 99.824656 97.06824 99.620404 97.06824 L 97.182826 97.06824 z M 101.28904 97.06824 C 101.08922 97.06824 100.9185 97.139575 100.77641 97.281664 C 100.63432 97.423753 100.56298 97.595879 100.56298 97.797912 L 100.56298 99.382828 C 100.56298 99.484954 100.59839 99.571716 100.66944 99.64276 C 100.74048 99.711584 100.82724 99.745596 100.92937 99.745596 C 101.03149 99.745596 101.11686 99.711584 101.18568 99.64276 C 101.25451 99.571716 101.28904 99.484954 101.28904 99.382828 L 101.28904 98.040791 L 101.53553 98.040791 L 101.53553 101.51396 C 101.53553 101.63164 101.57777 101.73155 101.66214 101.81369 C 101.74651 101.89805 101.8473 101.94029 101.96496 101.94029 C 102.08263 101.94029 102.18254 101.89805 102.26469 101.81369 C 102.34683 101.73155 102.38819 101.63164 102.38819 101.51396 L 102.38819 99.745596 L 102.63469 99.745596 L 102.63469 101.51396 C 102.63469 101.63164 102.67553 101.73155 102.75768 101.81369 C 102.83982 101.89805 102.93974 101.94029 103.0574 101.94029 C 103.17508 101.94029 103.27587 101.89805 103.36023 101.81369 C 103.44459 101.73155 103.48683 101.63164 103.48683 101.51396 L 103.48683 98.040791 L 103.72661 98.040791 L 103.72661 99.382828 C 103.72661 99.484954 103.76203 99.571716 103.83307 99.64276 C 103.90411 99.711584 103.99087 99.745596 104.093 99.745596 C 104.19513 99.745596 104.28189 99.711584 104.35293 99.64276 C 104.42398 99.571716 104.45938 99.484954 104.45938 99.382828 L 104.45938 97.797912 C 104.45938 97.595879 104.38856 97.423753 104.24648 97.281664 C 104.10439 97.139575 103.93087 97.06824 103.72661 97.06824 L 101.28904 97.06824 z " />
    <path
       id="path2-5-6-4"
       style="fill:#ffffff;fill-opacity:1;stroke:none;stroke-width:1.91451;stroke-dasharray:none;stroke-opacity:1;paint-order:stroke fill markers"
       d="M 80.476869 75.622004 A 6.6946034 6.6946034 0 0 0 73.782188 82.316169 A 6.6946034 6.6946034 0 0 0 80.476869 89.010851 A 6.6946034 6.6946034 0 0 0 87.171551 82.316169 A 6.6946034 6.6946034 0 0 0 80.476869 75.622004 z M 80.476869 78.965986 C 80.714423 78.965986 80.915126 79.04959 81.079417 79.2161 C 81.243706 79.38039 81.325913 79.581093 81.325913 79.818647 C 81.325913 80.056202 81.243706 80.258302 81.079417 80.424812 C 80.915126 80.589102 80.714423 80.671308 80.476869 80.671308 C 80.239315 80.671308 80.037215 80.589102 79.870705 80.424812 C 79.704195 80.258302 79.621108 80.056202 79.621108 79.818647 C 79.621108 79.581093 79.704195 79.38039 79.870705 79.2161 C 80.037215 79.04959 80.239315 78.965986 80.476869 78.965986 z M 79.254722 80.794298 L 81.692299 80.794298 C 81.896551 80.794298 82.069559 80.865633 82.211647 81.007722 C 82.353736 81.14981 82.425071 81.321937 82.425071 81.52397 L 82.425071 83.108886 C 82.425071 83.211012 82.389661 83.297774 82.318617 83.368818 C 82.247573 83.437643 82.160811 83.472171 82.058685 83.472171 C 81.956558 83.472171 81.869796 83.437643 81.798752 83.368818 C 81.727708 83.297774 81.692299 83.211012 81.692299 83.108886 L 81.692299 81.766849 L 81.45252 81.766849 L 81.45252 85.240022 C 81.45252 85.357689 81.410278 85.4576 81.325913 85.539745 C 81.241548 85.62411 81.140756 85.666352 81.023089 85.666352 C 80.905422 85.666352 80.80551 85.62411 80.723366 85.539745 C 80.641221 85.4576 80.599859 85.357689 80.599859 85.240022 L 80.599859 83.472171 L 80.353363 83.472171 L 80.353363 85.240022 C 80.353363 85.357689 80.312518 85.4576 80.230373 85.539745 C 80.148228 85.62411 80.048317 85.666352 79.930649 85.666352 C 79.812982 85.666352 79.711674 85.62411 79.627309 85.539745 C 79.542944 85.4576 79.501218 85.357689 79.501218 85.240022 L 79.501218 81.766849 L 79.254722 81.766849 L 79.254722 83.108886 C 79.254722 83.211012 79.220193 83.297774 79.151369 83.368818 C 79.082545 83.437643 78.99718 83.472171 78.895054 83.472171 C 78.792928 83.472171 78.706166 83.437643 78.635121 83.368818 C 78.564077 83.297774 78.528668 83.211012 78.528668 83.108886 L 78.528668 81.52397 C 78.528668 81.321937 78.599486 81.14981 78.741575 81.007722 C 78.883663 80.865633 79.05491 80.794298 79.254722 80.794298 z " />
    <path
       id="path2-5-3-7"
       style="fill:#ffffff;fill-opacity:1;stroke:none;stroke-width:1.91472;stroke-dasharray:none;stroke-opacity:1;paint-order:stroke fill markers"
       d="M 100.45808 75.540872 A 6.6946898 6.6946898 0 0 0 93.763397 82.235554 A 6.6946898 6.6946898 0 0 0 100.45808 88.930236 A 6.6946898 6.6946898 0 0 0 107.15276 82.235554 A 6.6946898 6.6946898 0 0 0 100.45808 75.540872 z M 98.404974 78.885371 C 98.642528 78.885371 98.843748 78.968458 99.008038 79.134968 C 99.172328 79.299258 99.254535 79.500478 99.254535 79.738032 C 99.254535 79.975586 99.172328 80.177687 99.008038 80.344197 C 98.843748 80.508486 98.642528 80.590693 98.404974 80.590693 C 98.16742 80.590693 97.965319 80.508486 97.798809 80.344197 C 97.6323 80.177687 97.549212 79.975586 97.549212 79.738032 C 97.549212 79.500478 97.6323 79.299258 97.798809 79.134968 C 97.965319 78.968458 98.16742 78.885371 98.404974 78.885371 z M 102.51118 78.885371 C 102.74874 78.885371 102.94995 78.968458 103.11425 79.134968 C 103.27853 79.299258 103.36023 79.500478 103.36023 79.738032 C 103.36023 79.975586 103.27853 80.177687 103.11425 80.344197 C 102.94995 80.508486 102.74874 80.590693 102.51118 80.590693 C 102.27363 80.590693 102.07153 80.508486 101.90502 80.344197 C 101.73851 80.177687 101.65542 79.975586 101.65542 79.738032 C 101.65542 79.500478 101.73851 79.299258 101.90502 79.134968 C 102.07153 78.968458 102.27363 78.885371 102.51118 78.885371 z M 97.182826 80.713683 L 99.620404 80.713683 C 99.824656 80.713683 99.998177 80.784501 100.14027 80.92659 C 100.28236 81.068678 100.35318 81.240805 100.35318 81.442838 L 100.35318 83.02827 C 100.35318 83.130397 100.31777 83.216642 100.24672 83.287686 C 100.17568 83.356511 100.08892 83.391039 99.98679 83.391039 C 99.884663 83.391039 99.798418 83.356511 99.727374 83.287686 C 99.656329 83.216642 99.620404 83.130397 99.620404 83.02827 L 99.620404 81.686234 L 99.380625 81.686234 L 99.380625 85.159407 C 99.380625 85.277074 99.338899 85.376985 99.254535 85.45913 C 99.170169 85.543495 99.068861 85.585737 98.951194 85.585737 C 98.833527 85.585737 98.733615 85.543495 98.651471 85.45913 C 98.569325 85.376985 98.528481 85.277074 98.528481 85.159407 L 98.528481 83.391039 L 98.281984 83.391039 L 98.281984 85.159407 C 98.281984 85.277074 98.240623 85.376985 98.158477 85.45913 C 98.076333 85.543495 97.976421 85.585737 97.858754 85.585737 C 97.741087 85.585737 97.640295 85.543495 97.55593 85.45913 C 97.471565 85.376985 97.429323 85.277074 97.429323 85.159407 L 97.429323 81.686234 L 97.182826 81.686234 L 97.182826 83.02827 C 97.182826 83.130397 97.148297 83.216642 97.079473 83.287686 C 97.010649 83.356511 96.925284 83.391039 96.823158 83.391039 C 96.721032 83.391039 96.63427 83.356511 96.563226 83.287686 C 96.492181 83.216642 96.456772 83.130397 96.456772 83.02827 L 96.456772 81.442838 C 96.456772 81.240805 96.528108 81.068678 96.670196 80.92659 C 96.812285 80.784501 96.983015 80.713683 97.182826 80.713683 z M 101.28904 80.713683 L 103.72661 80.713683 C 103.93087 80.713683 104.10439 80.784501 104.24648 80.92659 C 104.38856 81.068678 104.45938 81.240805 104.45938 81.442838 L 104.45938 83.02827 C 104.45938 83.130397 104.42398 83.216642 104.35293 83.287686 C 104.28189 83.356511 104.19513 83.391039 104.093 83.391039 C 103.99087 83.391039 103.90411 83.356511 103.83307 83.287686 C 103.76203 83.216642 103.72661 83.130397 103.72661 83.02827 L 103.72661 81.686234 L 103.48683 81.686234 L 103.48683 85.159407 C 103.48683 85.277074 103.44459 85.376985 103.36023 85.45913 C 103.27587 85.543495 103.17508 85.585737 103.0574 85.585737 C 102.93974 85.585737 102.83982 85.543495 102.75768 85.45913 C 102.67553 85.376985 102.63469 85.277074 102.63469 85.159407 L 102.63469 83.391039 L 102.38819 83.391039 L 102.38819 85.159407 C 102.38819 85.277074 102.34683 85.376985 102.26469 85.45913 C 102.18254 85.543495 102.08263 85.585737 101.96496 85.585737 C 101.8473 85.585737 101.74651 85.543495 101.66214 85.45913 C 101.57777 85.376985 101.53553 85.277074 101.53553 85.159407 L 101.53553 81.686234 L 101.28904 81.686234 L 101.28904 83.02827 C 101.28904 83.130397 101.25451 83.216642 101.18568 83.287686 C 101.11686 83.356511 101.03149 83.391039 100.92937 83.391039 C 100.82724 83.391039 100.74048 83.356511 100.66944 83.287686 C 100.59839 83.216642 100.56298 83.130397 100.56298 83.02827 L 100.56298 81.442838 C 100.56298 81.240805 100.63432 81.068678 100.77641 80.92659 C 100.9185 80.784501 101.08922 80.713683 101.28904 80.713683 z " />
    <circle
       style="fill:none;stroke:#ffffff;stroke-width:3.569;stroke-opacity:1;paint-order:stroke fill markers"
       id="path1-1"
       cx="30.428076"
       cy="149.16762"
       r="14.688039" />
    <circle
       style="fill:#ffffff;fill-opacity:1;stroke:#ffffff;stroke-width:2;stroke-dasharray:none;stroke-opacity:1;paint-order:stroke fill markers;stroke-linejoin:round"
       id="path1-1-3"
       cx="30.428076"
       cy="149.16762"
       r="5" />
    <circle
       style="fill:none;stroke:#ffffff;stroke-width:3.569;stroke-opacity:1;paint-order:stroke fill markers"
       id="path1-1-8"
       cx="133.62538"
       cy="108.78345"
       r="14.688039" />
    <path
       style="fill:#ffffff;fill-opacity:1;stroke:#ffffff;stroke-width:2;stroke-dasharray:none;stroke-opacity:1;paint-order:stroke fill markers;stroke-linejoin:round"
       id="path1-1-3-6"
       sodipodi:type="arc"
       sodipodi:cx="133.62538"
       sodipodi:cy="108.78345"
       sodipodi:rx="10"
       sodipodi:ry="10"
       sodipodi:start="5.4977871"
       sodipodi:end="0.78539816"
       sodipodi:arc-type="slice"
       d="m 140.69645,101.71238 a 10,10 0 0 1 0,14.14214 l -7.07107,-7.07107 z" />
    <circle
       style="fill:none;stroke:#ffffff;stroke-width:3.569;stroke-opacity:1;paint-order:stroke fill markers"
       id="path1-1-7"
       cx="176.57047"
       cy="108.78345"
       r="14.688039" />
    <path
       style="fill:#ffffff;fill-opacity:1;stroke:#ffffff;stroke-width:2;stroke-dasharray:none;stroke-opacity:1;paint-order:stroke fill markers;stroke-linejoin:round"
       id="path1-1-3-2"
       sodipodi:type="arc"
       sodipodi:cx="176.57047"
       sodipodi:cy="108.78345"
       sodipodi:rx="10"
       sodipodi:ry="10"
       sodipodi:start="4.712389"
       sodipodi:end="0"
       sodipodi:arc-type="slice"
       d="m 176.57047,98.783447 a 10,10 0 0 1 7.07106,2.928933 10,10 0 0 1 2.92894,7.07107 h -10 z" />
    <circle
       style="fill:none;stroke:#ffffff;stroke-width:3.569;stroke-opacity:1;paint-order:stroke fill markers"
       id="path1-1-2"
       cx="219.51555"
       cy="108.78345"
       r="14.688039" />
    <path
       style="fill:#ffffff;fill-opacity:1;stroke:#ffffff;stroke-width:2;stroke-dasharray:none;stroke-opacity:1;paint-order:stroke fill markers;stroke-linejoin:round"
       id="path1-1-3-9"
       sodipodi:type="arc"
       sodipodi:cx="219.51555"
       sodipodi:cy="108.78345"
       sodipodi:rx="10"
       sodipodi:ry="10"
       sodipodi:start="3.9269908"
       sodipodi:end="5.4977871"
       sodipodi:arc-type="slice"
       d="m 212.44448,101.71238 a 10,10 0 0 1 14.14214,0 l -7.07107,7.07107 z" />
    <circle
       style="fill:none;stroke:#ffffff;stroke-width:3.569;stroke-opacity:1;paint-order:stroke fill markers"
       id="path1-1-1"
       cx="262.46063"
       cy="108.78345"
       r="14.688039" />
    <path
       style="fill:#ffffff;fill-opacity:1;stroke:#ffffff;stroke-width:2;stroke-dasharray:none;stroke-opacity:1;paint-order:stroke fill markers;stroke-linejoin:round"
       id="path1-1-3-3"
       sodipodi:type="arc"
       sodipodi:cx="262.46063"
       sodipodi:cy="108.78345"
       sodipodi:rx="10"
       sodipodi:ry="10"
       sodipodi:start="3.1415927"
       sodipodi:end="4.712389"
       sodipodi:arc-type="slice"
       d="m 252.46063,108.78345 a 10,10 0 0 1 2.92893,-7.07107 10,10 0 0 1 7.07107,-2.928933 v 10.000003 z" />
    <circle
       style="fill:none;stroke:#ffffff;stroke-width:3.569;stroke-opacity:1;paint-order:stroke fill markers"
       id="path1-1-34"
       cx="133.62538"
       cy="152.58943"
       r="14.688039" />
    <path
       style="fill:#ffffff;fill-opacity:1;stroke:#ffffff;stroke-width:2;stroke-dasharray:none;stroke-opacity:1;paint-order:stroke fill markers;stroke-linejoin:round"
       id="path1-1-3-0"
       sodipodi:type="arc"
       sodipodi:cx="133.62538"
       sodipodi:cy="152.58943"
       sodipodi:rx="10"
       sodipodi:ry="10"
       sodipodi:start="2.3561945"
       sodipodi:end="3.9269908"
       sodipodi:arc-type="slice"
       d="m 126.55431,159.6605 a 10,10 0 0 1 0,-14.14214 l 7.07107,7.07107 z" />
    <circle
       style="fill:none;stroke:#ffffff;stroke-width:3.569;stroke-opacity:1;paint-order:stroke fill markers"
       id="path1-1-9"
       cx="176.90752"
       cy="152.58943"
       r="14.688039" />
    <path
       style="fill:#ffffff;fill-opacity:1;stroke:#ffffff;stroke-width:2;stroke-dasharray:none;stroke-opacity:1;paint-order:stroke fill markers;stroke-linejoin:round"
       id="path1-1-3-69"
       sodipodi:type="arc"
       sodipodi:cx="176.90752"
       sodipodi:cy="152.58943"
       sodipodi:rx="10"
       sodipodi:ry="10"
       sodipodi:start="1.5707963"
       sodipodi:end="3.1415927"
       sodipodi:arc-type="slice"
       d="m 176.90752,162.58943 a 10,10 0 0 1 -7.07107,-2.92893 10,10 0 0 1 -2.92893,-7.07107 h 10 z" />
    <circle
       style="fill:none;stroke:#ffffff;stroke-width:3.569;stroke-opacity:1;paint-order:stroke fill markers"
       id="path1-1-0"
       cx="219.79047"
       cy="152.58943"
       r="14.688039" />
    <path
       style="fill:#ffffff;fill-opacity:1;stroke:#ffffff;stroke-width:2;stroke-dasharray:none;stroke-opacity:1;paint-order:stroke fill markers;stroke-linejoin:round"
       id="path1-1-3-5"
       sodipodi:type="arc"
       sodipodi:cx="219.79047"
       sodipodi:cy="152.58943"
       sodipodi:rx="10"
       sodipodi:ry="10"
       sodipodi:start="0.78539816"
       sodipodi:end="2.3561945"
       sodipodi:arc-type="slice"
       d="m 226.86153,159.6605 a 10,10 0 0 1 -7.07106,2.92893 10,10 0 0 1 -7.07107,-2.92893 l 7.07107,-7.07107 z" />
    <circle
       style="fill:none;stroke:#ffffff;stroke-width:3.569;stroke-opacity:1;paint-order:stroke fill markers"
       id="path1-1-00"
       cx="262.79568"
       cy="152.58943"
       r="14.688039" />
    <path
       style="fill:#ffffff;fill-opacity:1;stroke:#ffffff;stroke-width:2;stroke-dasharray:none;stroke-opacity:1;paint-order:stroke fill markers;stroke-linejoin:round"
       id="path1-1-3-4"
       sodipodi:type="arc"
       sodipodi:cx="262.79568"
       sodipodi:cy="152.58943"
       sodipodi:rx="10"
       sodipodi:ry="10"
       sodipodi:start="0"
       sodipodi:end="1.5707963"
       sodipodi:arc-type="slice"
       d="m 272.79568,152.58943 a 10,10 0 0 1 -10,10 v -10 z" />
  </g>
</svg>
